<svg width="145px" height="145px" viewBox="0 0 145 145" version="1.1" xmlns="http://www.w3.org/2000/svg" xmlns:xlink="http://www.w3.org/1999/xlink">
    <g id="Page-1" stroke="none" stroke-width="1" fill="none" fill-rule="evenodd">
        <g id="macOS-Safari-icon" fill="#FFFFFF">
            <g id="Group">
                <path d="M72.5,0 C112.540644,-7.35534704e-15 145,32.4593556 145,72.5 C145,112.540644 112.540644,145 72.5,145 C32.4593556,145 4.9035647e-15,112.540644 0,72.5 C-4.9035647e-15,32.4593556 32.4593556,7.35534704e-15 72.5,0 Z M72.5,49.3 C75.7032515,49.3 78.3,46.7032515 78.3,43.5 C78.3,40.2967485 75.7032515,37.7 72.5,37.7 C69.2967485,37.7 66.7,40.2967485 66.7,43.5 C66.7,46.7032515 69.2967485,49.3 72.5,49.3 Z M67.6215073,84.5781414 C67.9683161,85.2158969 68.15,85.9303076 68.15,86.6562611 L68.15,106.575 C68.15,108.977439 70.0975613,110.925 72.5,110.925 C74.9024387,110.925 76.85,108.977439 76.85,106.575 L76.85,86.6676226 C76.85,85.9344468 77.0353151,85.2131652 77.3887282,84.57079 L95.1626556,52.2643155 C96.3193141,50.158644 95.5499871,47.514003 93.4443155,46.3573444 C91.338644,45.2006859 88.694003,45.9700129 87.5373444,48.0756845 L73.779375,73.0755262 C73.6454997,73.3187933 73.4445905,73.5185055 73.2005278,73.6509248 C72.4966436,74.0328258 71.6164408,73.7718068 71.2345398,73.0679227 L57.6746944,48.0756845 C56.5180358,45.9700129 53.8733948,45.2006859 51.7677233,46.3573444 C49.6620518,47.514003 48.8927247,50.158644 50.0493833,52.2643155 L67.6215073,84.5781414 Z" id="Combined-Shape"></path>
            </g>
        </g>
    </g>
</svg>